<svg height='100px' width='100px'  fill="#FFFFFF" xmlns="http://www.w3.org/2000/svg" xmlns:xlink="http://www.w3.org/1999/xlink" version="1.1" x="0px" y="0px" viewBox="0 0 100 100" style="enable-background:new 0 0 100 100;" xml:space="preserve"><g><path d="M81.8,47.8L66.3,24l-12.4-7.2l-3.6,0.9l-9,10.8l-3.6-1.8l1.1-3.4l9.7-6.3l0.9-6.3l4.3,1.1l3.8-0.5l-0.3-1l-7.5-2.6L45.9,5   l-8.1,0.2l-5.2,2.2l-1.3,2.9l-15.1,8.5v0.9l16.4-6.3l3.4,1.3l3.1-1.6l2.9-1.3l2,0.4l0.4,2l-11,7l-1.6,12.4l1.1,5.8l0.9-2.7l1.6,5.6   l0.9-2.5l1.3,4.3l0.4-3.6l17.5,15.1l1.8,3.1l2.5,1.3l3.6,13l-5.6,22h2.6l5.5-22l-3.1-12.8l2-1.8l3.6,0.9l6.7,3.6l1.3,3.6l1.1-3.1   l1.6,4.5l1.6-3.8l1.3,6.3l1.8-7.4L81.8,47.8z M36.6,10.9c-0.7,0-1.3-0.6-1.3-1.3s0.6-1.3,1.3-1.3s1.3,0.6,1.3,1.3   C37.9,10.3,37.3,10.9,36.6,10.9z"></path></g></svg>