<svg fill="#000000" xmlns="http://www.w3.org/2000/svg" viewBox="0 0 24 24" width="48px" height="48px"><path d="M 19 3 L 5 3 C 3.898438 3 3 3.898438 3 5 L 3 19 C 3 20.101563 3.898438 21 5 21 L 19 21 C 20.101563 21 21 20.101563 21 19 L 21 5 C 21 3.898438 20.101563 3 19 3 Z M 15.300781 6.800781 C 15.300781 6.898438 15.199219 7 15.199219 7 C 14.601563 7.101563 13.101563 7.398438 13.101563 7.800781 L 13.101563 16.300781 C 13.101563 17.101563 15.101563 17.101563 15.199219 17.101563 C 15.300781 17.101563 15.398438 17.199219 15.398438 17.300781 L 15.398438 17.898438 C 15.398438 18 15.300781 18.101563 15.199219 18.101563 L 8.800781 18.101563 C 8.699219 18.101563 8.601563 18 8.601563 17.898438 L 8.601563 17.300781 C 8.601563 17.199219 8.699219 17.101563 8.800781 17.101563 C 8.800781 17.101563 10.898438 17.101563 10.898438 16.300781 L 10.898438 7.699219 C 10.898438 7.300781 9.5 7 8.800781 6.898438 C 8.699219 6.898438 8.699219 6.800781 8.699219 6.699219 L 8.699219 6.199219 C 8.699219 6.101563 8.699219 6 8.800781 6 L 15.101563 6 C 15.199219 6 15.300781 6.101563 15.300781 6.199219 Z"/></svg>